<svg width="195" height="28" viewBox="0 0 195 28" fill="none" xmlns="http://www.w3.org/2000/svg">
<path d="M0 0H11.36L17.16 5.48V10.68L14.48 13.24L17.68 16.24V22.48L11.88 27.96H0V0ZM5.6 10.76H9.68L11.04 9.76L11.56 8.08L11.04 6.4L9.68 5.4H5.6V10.76ZM5.6 22.56H9.84L11.48 21.4L12.08 19.36L11.48 17.32L9.84 16.16H5.6V22.56Z" fill="#E4EDFF"/>
<path d="M27.2797 27.96H21.6797V0H27.2797V27.96Z" fill="#E4EDFF"/>
<path d="M43.5103 27.96H37.2703L31.4703 22.48V5.48L37.2703 0H43.5103L49.2703 5.48V9.8H43.6703V8.6L43.0303 6.56L41.3903 5.4H39.3103L37.6703 6.56L37.0703 8.6V19.36L37.6703 21.4L39.3103 22.56H41.3903L43.0303 21.4L43.6703 19.36V16.16H40.7103V13.76H49.2703V27.96H47.4703L46.2703 25.32L43.5103 27.96Z" fill="#E4EDFF"/>
<path d="M69.6625 14.44V27.96H64.0625V0H70.1825L76.1425 15.68L82.1025 0H88.2225V27.96H82.6225V14.44L78.4225 23.96H73.8625L69.6625 14.44Z" fill="#E4EDFF"/>
<path d="M111.848 27.96H106.088L105.168 24.36H97.8878L96.9678 27.96H91.2078L98.3678 0H104.688L111.848 27.96ZM101.528 9.8L99.2078 18.96H103.848L101.528 9.8Z" fill="#E4EDFF"/>
<path d="M127.284 17.68L133.364 27.96H127.124L121.684 18.2H120.444V27.96H114.844V0H126.724L132.524 5.48V12.72L127.284 17.68ZM124.684 5.4H120.444V12.84H124.684L126.324 11.68L126.924 9.12L126.324 6.56L124.684 5.4Z" fill="#E4EDFF"/>
<path d="M136.758 0H142.358V9.52L149.158 0H156.118L145.918 14L156.118 27.96H149.158L142.358 18.48V27.96H136.758V0Z" fill="#E4EDFF"/>
<path d="M158.711 0H174.831V5.4H164.311V10.76H172.831V16.16H164.311V22.56H174.831V27.96H158.711V0Z" fill="#E4EDFF"/>
<path d="M188.428 27.96H182.828V5.4H177.228V0H194.028V5.4H188.428V27.96Z" fill="#E4EDFF"/>
</svg>
